<svg width="32" height="32" viewBox="0 0 32 32" fill="none" xmlns="http://www.w3.org/2000/svg">
  <rect width="32" height="32" rx="6" fill="#00C2FF"/>
  <path d="M8 10C8 9.44772 8.44772 9 9 9H23C23.5523 9 24 9.44772 24 10V22C24 22.5523 23.5523 23 23 23H9C8.44772 23 8 22.5523 8 22V10Z" fill="white"/>
  <path d="M10 12H22V14H10V12Z" fill="#00C2FF"/>
  <path d="M10 16H22V17H10V16Z" fill="#00C2FF"/>
  <path d="M10 19H18V20H10V19Z" fill="#00C2FF"/>
  <circle cx="20" cy="19.5" r="1.5" fill="#FF6B35"/>
  <path d="M19 19.5L19.5 20L21 18.5" stroke="white" stroke-width="0.8" fill="none"/>
</svg>
